<svg width="28" height="28" viewBox="0 0 28 28" fill="none" xmlns="http://www.w3.org/2000/svg">
<path d="M15.72 27.84H12.18C12.84 23.64 13.26 20.22 13.44 15.18C9.95999 18.84 7.85999 21.54 5.33999 25.02L2.81999 22.5C6.23999 19.98 8.99999 17.88 12.66 14.4C7.67999 14.58 4.19999 15.06 -1.21891e-05 15.72V12.12C4.19999 12.84 7.61999 13.26 12.66 13.44C8.99999 9.96 6.29999 7.86 2.81999 5.34L5.33999 2.82C7.85999 6.3 9.95999 9.06 13.44 12.66C13.26 7.68 12.84 4.2 12.18 -7.15256e-07H15.72C15 4.2 14.58 7.62 14.4 12.66C17.88 9.06 20.04 6.24 22.5 2.82L25.02 5.34C21.6 7.86 18.84 9.96 15.18 13.44C20.22 13.32 23.64 12.84 27.84 12.12L27.9 15.66C23.7 15 20.22 14.58 15.18 14.46C18.84 17.88 21.6 19.98 25.02 22.5L22.5 25.02C20.04 21.6 17.88 18.84 14.4 15.18C14.58 20.22 15 23.64 15.72 27.84Z" fill="white"/>
</svg>
