<svg xmlns="http://www.w3.org/2000/svg" width="1000" height="210" viewBox="0 0 1000 210" fill="none">
<path d="M86.0731 39.4517C96.6922 48.2254 99.6847 60.0858 102.545 73.6842C105.635 69.734 107.099 65.8735 108.678 61.0198C112.578 49.8941 116.516 43.5131 126.505 38.0703C133.167 35.6795 140.841 35.5832 147.326 38.6842C157.467 45.1258 161.31 54.4441 164.155 66.3158C165.081 70.4553 165.985 74.5979 166.86 78.75C168.297 85.4991 169.981 92.1375 171.785 98.7829C174.754 109.792 177.596 120.835 180.356 131.906C180.817 133.751 181.281 135.595 181.749 137.439C189.029 166.162 189.029 166.162 183.551 178.07C179.863 184.575 174.417 188.892 167.627 191.066C159.536 192.847 153.652 191.452 146.31 187.501C139.864 182.562 137.039 176.883 134.848 168.86C134.62 168.076 134.393 167.292 134.159 166.485C133.5 164.21 132.854 161.929 132.209 159.649C131.456 157.19 130.698 154.733 129.927 152.281C129.617 153.104 129.308 153.928 128.989 154.776C127.562 158.533 126.107 162.276 124.651 166.02C124.164 167.316 123.677 168.611 123.176 169.946C119.467 179.388 116.461 183.561 108.308 188.849C101.226 191.904 92.8685 192.036 85.7344 189.041C75.5755 182.308 72.1102 171.992 69.2446 160.033C68.6841 157.776 68.1212 155.52 67.5554 153.264C67.3169 152.278 67.0782 151.293 66.8325 150.277C65.9806 147.168 64.9116 144.219 63.7538 141.228C63.375 142.212 62.996 143.196 62.6056 144.209C61.1726 147.914 59.7296 151.615 58.2804 155.312C57.6594 156.903 57.0419 158.495 56.4285 160.089C46.3505 186.259 46.3505 186.259 35.2306 191.579C33.0202 192.5 33.0202 192.5 30.6669 192.807C28.6903 193.073 28.6903 193.073 26.6738 193.344C18.7069 193.184 11.2911 188.745 5.45086 183.136C0.600765 176.604 -0.279498 169.677 0.0671177 161.477C1.506 150.691 6.44462 140.706 10.5861 130.882C12.5588 126.139 14.4533 121.366 16.3253 116.576C16.6583 115.723 16.9914 114.871 17.3345 113.993C18.0142 112.253 18.6938 110.513 19.3731 108.773C24.4716 95.7406 29.6484 82.7432 34.8742 69.7698C35.328 68.6409 35.7817 67.512 36.2492 66.349C42.1841 51.6786 46.4922 43.7828 60.4737 37.7631C68.8398 36.0201 78.44 34.594 86.0731 39.4517Z" fill="#D0FB1B"/>
<path d="M256.57 73.6841C264.853 73.6841 273.137 73.6841 281.669 73.6841C303.032 121.892 303.032 121.892 310.194 141.228C313.167 138.029 314.376 134.352 315.979 130.247C320.196 119.658 324.704 109.231 329.288 98.8193C330.613 95.8068 331.933 92.7917 333.253 89.7763C334.097 87.8548 334.941 85.9336 335.785 84.0124C336.177 83.1134 336.57 82.2142 336.976 81.288C339.726 75.0534 339.726 75.0535 340.997 73.6841C348.906 73.6841 356.812 73.6841 364.957 73.6841C364.957 107.726 364.957 141.768 364.957 176.842C358.557 176.842 352.156 176.842 345.562 176.842C345.186 156.174 344.809 135.505 344.422 114.21C336.742 131.147 336.742 131.147 329.062 148.083C328.091 150.224 327.121 152.365 326.148 154.506C325.409 156.141 325.409 156.141 324.651 157.809C321.766 164.171 318.849 170.515 315.898 176.842C312.134 176.842 308.368 176.842 304.489 176.842C302.444 172.288 300.398 167.733 298.355 163.178C297.664 161.643 296.976 160.109 296.288 158.575C289.47 143.399 282.723 128.189 275.965 112.982C275.965 134.056 275.965 155.13 275.965 176.842C269.565 176.842 263.165 176.842 256.57 176.842C256.57 142.8 256.57 108.758 256.57 73.6841Z" fill="#FEFEFE"/>
<path d="M473.344 73.6841C525.796 73.6841 525.796 73.6841 535.263 83.4271C541.411 91.3287 542.586 100.239 542.223 110.31C541.094 120.718 537.468 127.745 529.847 134.315C519.003 141.85 506.253 140.3 493.882 140C493.882 152.158 493.882 164.316 493.882 176.842C487.105 176.842 480.328 176.842 473.344 176.842C473.344 142.8 473.344 108.758 473.344 73.6841ZM493.882 92.1052C493.882 101.426 493.882 110.747 493.882 120.351C496.565 120.427 499.247 120.503 502.011 120.581C502.841 120.615 503.672 120.648 504.53 120.683C510.82 120.768 515.304 119.125 519.981 114.594C522.425 109.184 521.903 103.991 520.194 98.4757C515.731 93.38 510.21 92.2616 503.855 91.8847C500.53 91.8761 497.204 91.9819 493.882 92.1052Z" fill="white"/>
<path d="M944.546 103.158C946.901 105.921 946.9 105.921 947.97 108.07C948.347 105.233 948.723 102.396 949.11 99.4735C955.511 99.4735 961.911 99.4735 968.505 99.4735C968.505 125.005 968.505 150.537 968.505 176.842C962.105 176.842 955.704 176.842 949.11 176.842C948.546 173.195 948.546 173.195 947.97 169.474C947.193 170.411 946.417 171.348 945.616 172.314C938.906 178.923 933.048 180.008 924.153 179.72C914.14 178.534 905.331 174.285 898.909 165.789C892.245 153.837 889.177 143.335 891.449 129.408C894.409 117.415 900.382 108.286 910.32 101.93C920.742 95.6144 934.575 96.0508 944.546 103.158ZM916.527 121.977C911.653 127.909 910.03 133.381 910.39 141.151C911.118 147.269 912.997 151.694 917.164 155.965C923.336 160.77 929.188 160.618 936.559 159.649C941.669 156.997 944.755 153.595 947.97 148.596C949.812 142.651 950.226 136.087 948.29 130.089C945.191 123.875 941.349 120.224 935.347 117.588C928.567 115.724 921.917 117.047 916.527 121.977Z" fill="white"/>
<path d="M368.382 99.474C376.288 99.474 384.194 99.474 392.339 99.474C397.61 116.09 402.882 132.706 408.312 149.825C413.583 133.209 418.855 116.593 424.285 99.474C431.817 99.474 439.347 99.474 447.105 99.474C446.035 105.226 444.376 110.197 442.301 115.568C441.745 117.021 441.745 117.021 441.18 118.504C439.976 121.655 438.763 124.803 437.548 127.95C436.715 130.12 435.882 132.29 435.048 134.461C433.384 138.792 431.718 143.121 430.046 147.449C428.296 151.985 426.554 156.525 424.817 161.067C423.46 164.615 422.091 168.157 420.72 171.7C420.25 172.933 419.782 174.165 419.298 175.435C413.976 189.081 408.737 199.407 396.476 206.7C388.22 209.027 380.18 209.119 371.804 207.544C370.105 203.885 371.062 201.099 371.661 197.106C371.871 195.674 372.078 194.244 372.293 192.769C372.944 189.123 372.944 189.123 374.086 186.667C374.831 186.71 375.573 186.752 376.341 186.797C382.508 187.002 387.167 187.056 392.339 182.983C394.511 179.515 395.909 177.226 395.524 172.987C394.239 167.991 392.384 163.319 390.508 158.551C390.097 157.489 389.683 156.426 389.258 155.332C387.938 151.933 386.61 148.538 385.28 145.143C379.371 130.016 373.632 114.882 368.382 99.474Z" fill="white"/>
<path d="M717.46 101.705C727.556 108.015 732.153 117.311 735.758 128.948C735.758 134.622 735.758 140.295 735.758 146.141C718.438 146.546 701.118 146.951 683.274 147.369C687.661 155.32 687.661 155.32 694.694 159.04C700.941 160.123 705.035 159.407 710.659 155.965C711.858 154.598 711.858 154.598 713.083 153.202C713.788 152.493 714.495 151.784 715.221 151.053C720.038 151.429 722.742 153.41 726.417 156.656C727.317 157.443 728.221 158.23 729.148 159.04C729.823 159.647 730.5 160.253 731.194 160.878C730.341 166.467 727.71 168.809 723.769 172.319C714.387 179.141 703.476 180.723 692.403 179.299C680.914 176.563 672.559 169.762 666.118 159.247C660.944 149.559 660.874 137.98 662.984 127.312C665.753 117.187 671.54 108.319 679.992 102.808C691.414 96.5141 705.723 95.6004 717.46 101.705ZM685.629 122.807C682.952 126.253 682.952 126.253 683.274 130.176C694.194 130.176 705.113 130.176 716.363 130.176C713.167 123.298 711.823 120.739 706.094 116.667C698.196 113.851 691.186 116.071 685.629 122.807Z" fill="white"/>
<path d="M601.508 103.7C609.89 110.15 615.527 118.195 618.242 128.948C619.548 143.658 617.57 155.6 608.925 167.238C600.995 175.719 591.277 179.314 580.306 179.759C570.003 179.568 559.556 176.205 552.07 168.246C543.129 156.369 540.379 145.444 541.801 130.175C544.559 117.963 551.07 109.037 560.694 102.208C573.161 95.466 589.624 95.7937 601.508 103.7ZM565.261 124.573C561.403 129.629 560.785 134.517 560.876 141.036C561.648 147.41 564.444 152.193 568.755 156.502C574.427 160.52 579.616 160.382 586.296 159.649C591.376 156.966 594.5 153.583 597.707 148.597C599.747 142.01 599.634 135.226 597.634 128.641C593.831 122.829 589.683 117.903 582.946 116.59C575.645 116.21 570.132 118.753 565.261 124.573Z" fill="white"/>
<path d="M796.798 100.165C804.452 105.193 808.726 112.332 811.059 121.579C811.492 125.939 811.46 130.247 811.392 134.628C811.387 135.84 811.384 137.053 811.379 138.303C811.36 142.144 811.317 145.984 811.271 149.825C811.255 152.443 811.239 155.06 811.226 157.678C811.188 164.067 811.129 170.454 811.059 176.843C804.659 176.843 798.258 176.843 791.664 176.843C791.645 175.393 791.629 173.944 791.613 172.45C791.546 167.053 791.457 161.656 791.363 156.26C791.325 153.928 791.293 151.596 791.269 149.263C791.228 145.903 791.169 142.544 791.105 139.185C791.099 138.149 791.091 137.112 791.083 136.044C790.944 129.934 790.226 125.654 787.099 120.351C783.919 117.91 781.258 117.56 777.401 117.588C776.543 117.582 775.683 117.576 774.798 117.569C771.801 117.955 770.175 118.454 767.704 120.351C763.992 126.649 763.747 131.966 763.696 139.185C763.677 140.265 763.656 141.345 763.634 142.457C763.573 145.885 763.535 149.313 763.497 152.742C763.46 155.075 763.419 157.408 763.379 159.741C763.282 165.441 763.204 171.142 763.14 176.843C756.739 176.843 750.339 176.843 743.745 176.843C743.745 151.311 743.745 125.779 743.745 99.474C749.769 99.474 755.793 99.474 762 99.474C762.376 101.906 762.753 104.337 763.14 106.843C764.151 105.88 765.164 104.918 766.207 103.926C774.153 96.3666 787.255 95.536 796.798 100.165Z" fill="white"/>
<path d="M646.766 82.2809C646.766 87.9547 646.766 93.6285 646.766 99.474C651.661 99.474 656.554 99.474 661.597 99.474C661.597 105.553 661.597 111.632 661.597 117.895C656.704 117.895 651.809 117.895 646.766 117.895C646.901 123.294 647.043 128.694 647.191 134.093C647.239 135.931 647.288 137.769 647.333 139.607C647.398 142.244 647.47 144.881 647.546 147.517C647.586 149.106 647.629 150.694 647.672 152.331C647.527 155.825 647.527 155.825 649.048 157.193C650.965 157.479 652.892 157.7 654.823 157.884C656.683 158.061 658.54 158.239 660.457 158.421C660.457 164.5 660.457 170.579 660.457 176.842C657.199 176.976 653.946 177.073 650.688 177.15C649.774 177.191 648.863 177.232 647.922 177.274C641.519 177.387 636.828 176.577 631.933 171.93C627.702 165.358 626.723 159.313 626.925 151.475C626.93 150.508 626.938 149.54 626.944 148.543C626.968 145.49 627.027 142.439 627.083 139.386C627.107 137.301 627.129 135.216 627.148 133.131C627.196 128.052 627.277 122.974 627.371 117.895C623.981 117.895 620.594 117.895 617.102 117.895C617.102 111.816 617.102 105.737 617.102 99.474C620.489 99.474 623.879 99.474 627.371 99.474C627.371 94.2054 627.371 88.9371 627.371 83.5092C633.97 82.7306 640.089 82.2809 646.766 82.2809Z" fill="white"/>
<path d="M844.145 82.2807C844.145 87.9542 844.145 93.628 844.145 99.4735C849.04 99.4735 853.936 99.4735 858.979 99.4735C858.979 105.552 858.979 111.631 858.979 117.895C854.083 117.895 849.188 117.895 844.145 117.895C844.28 123.294 844.422 128.693 844.57 134.093C844.621 135.931 844.667 137.769 844.712 139.607C844.78 142.244 844.852 144.88 844.925 147.517C844.968 149.106 845.008 150.694 845.051 152.331C844.906 155.824 844.906 155.824 846.427 157.193C848.347 157.479 850.274 157.7 852.204 157.884C854.062 158.061 855.922 158.238 857.836 158.421C857.836 164.5 857.836 170.579 857.836 176.842C854.745 176.942 851.659 177.015 848.567 177.072C847.699 177.103 846.831 177.134 845.938 177.166C839.457 177.256 834.734 176.166 829.718 171.359C824.686 164.529 824.583 159.508 824.637 150.995C824.64 150.048 824.642 149.101 824.642 148.125C824.651 145.11 824.664 142.094 824.677 139.079C824.683 137.03 824.688 134.982 824.694 132.934C824.707 127.921 824.726 122.908 824.75 117.895C821.36 117.895 817.973 117.895 814.481 117.895C814.481 111.816 814.481 105.737 814.481 99.4735C817.871 99.4735 821.258 99.4735 824.75 99.4735C824.737 98.424 824.723 97.3746 824.71 96.2931C824.699 94.9364 824.688 93.5798 824.677 92.1819C824.664 90.8285 824.651 89.4748 824.637 88.0805C824.75 84.7369 824.75 84.7369 825.89 83.5087C827.452 83.2168 829.022 82.999 830.597 82.8178C831.871 82.6635 831.871 82.6635 833.172 82.506C836.823 82.2306 840.487 82.2807 844.145 82.2807Z" fill="white"/>
<path d="M977.634 68.772C984.411 68.772 991.188 68.772 998.169 68.772C998.169 104.435 998.169 140.099 998.169 176.842C991.392 176.842 984.616 176.842 977.634 176.842C977.634 141.179 977.634 105.516 977.634 68.772Z" fill="white"/>
<path d="M864.683 99.474C871.083 99.474 877.484 99.474 884.078 99.474C884.078 125.006 884.078 150.537 884.078 176.843C877.677 176.843 871.277 176.843 864.683 176.843C864.683 151.311 864.683 125.779 864.683 99.474Z" fill="white"/>
<path d="M200.665 0C203.173 2.6995 204.024 4.89042 205.443 8.36624C208.998 16.1662 213.132 19.4362 220.56 22.489C222.007 22.907 222.007 22.907 223.484 23.3333C213.5 31.9297 213.5 31.9297 208.652 31.9297C206.978 35.4668 205.434 39.0441 203.945 42.6755C203.542 43.6568 203.139 44.6385 202.724 45.6497C202.421 46.3906 202.118 47.1315 201.806 47.8948C199.29 45.1861 198.493 43.0274 197.1 39.5285C194.126 32.9471 190.724 30.1153 184.692 27.0176C183.846 26.5616 183.001 26.1057 182.129 25.636C181.469 25.2814 180.809 24.9268 180.128 24.5614C182.891 22.1824 185.548 20.3839 188.685 18.5746C195.845 14.1943 198.121 8.07805 200.665 0Z" fill="#D0F41F"/>
<path d="M878.374 70.0005C881.513 72.2055 883.538 73.7493 885.218 77.3688C885.632 82.7936 885.806 85.9027 883.578 90.801C879.425 94.3996 875.651 94.916 870.387 94.5619C866.941 93.0631 865.344 91.8615 863.186 88.6518C862.121 85.0077 861.976 82.4078 862.4 78.5971C866.503 70.528 869.944 69.2184 878.374 70.0005Z" fill="white"/>
</svg>